<svg xmlns="http://www.w3.org/2000/svg" width="512" height="512" viewBox="0 0 512 512" fill="none">
  <defs>
    <linearGradient id="bg" x1="72" y1="52" x2="438" y2="468" gradientUnits="userSpaceOnUse">
      <stop stop-color="#FFF3F9" />
      <stop offset="0.52" stop-color="#F3E9FF" />
      <stop offset="1" stop-color="#DCE7FF" />
    </linearGradient>
    <linearGradient id="cake" x1="166" y1="176" x2="360" y2="358" gradientUnits="userSpaceOnUse">
      <stop stop-color="#FF8FC8" />
      <stop offset="1" stop-color="#A56FFF" />
    </linearGradient>
    <linearGradient id="frosting" x1="175" y1="139" x2="340" y2="233" gradientUnits="userSpaceOnUse">
      <stop stop-color="#FFFDFE" />
      <stop offset="1" stop-color="#FFE7F4" />
    </linearGradient>
    <filter id="shadow" x="90" y="104" width="332" height="292" color-interpolation-filters="sRGB" filterUnits="userSpaceOnUse">
      <feFlood flood-opacity="0" result="BackgroundImageFix" />
      <feColorMatrix in="SourceAlpha" result="hardAlpha" values="0 0 0 0 0 0 0 0 0 0 0 0 0 0 0 0 0 0 127 0" />
      <feOffset dy="18" />
      <feGaussianBlur stdDeviation="18" />
      <feColorMatrix values="0 0 0 0 0.49 0 0 0 0 0.31 0 0 0 0 0.77 0 0 0 0.22 0" />
      <feBlend in2="BackgroundImageFix" result="effect1_dropShadow_0_1" />
      <feBlend in="SourceGraphic" in2="effect1_dropShadow_0_1" result="shape" />
    </filter>
  </defs>

  <rect width="512" height="512" rx="120" fill="url(#bg)" />
  <circle cx="130" cy="112" r="34" fill="#FFFFFF" fill-opacity="0.72" />
  <circle cx="397" cy="137" r="24" fill="#FFD5EB" fill-opacity="0.82" />
  <circle cx="391" cy="383" r="42" fill="#C8D9FF" fill-opacity="0.78" />

  <g filter="url(#shadow)">
    <path d="M147 327C147 290.549 176.549 261 213 261H299C335.451 261 365 290.549 365 327V341C365 360.33 349.33 376 330 376H182C162.67 376 147 360.33 147 341V327Z" fill="url(#cake)" />
    <path d="M167 245C167 216.833 189.833 194 218 194H294C322.167 194 345 216.833 345 245V268H167V245Z" fill="#FFD8EA" />
    <path d="M164 231C164 198.967 189.967 173 222 173H290C322.033 173 348 198.967 348 231C348 239.837 340.837 247 332 247H180C171.163 247 164 239.837 164 231Z" fill="url(#frosting)" />
    <path d="M187 174C192.211 150.628 212.991 133 237 133C260.238 133 280.492 149.374 286.159 171.91C291.682 159.635 304.002 151 318.339 151C337.793 151 353.565 166.772 353.565 186.226C353.565 187.524 353.495 188.805 353.357 190.065C366.831 194.405 376.565 207.044 376.565 221.956C376.565 240.462 361.565 255.462 343.059 255.462H182.941C163.882 255.462 148.435 240.015 148.435 220.956C148.435 204.355 160.16 190.493 175.794 187.19C178.66 181.485 182.721 176.48 187 174Z" fill="url(#frosting)" />
    <path d="M219 148C214.75 156.861 208.299 163.303 199.5 167.5" stroke="#FF97C9" stroke-linecap="round" stroke-width="10" />
    <path d="M248 140C244.627 151.387 238.244 161.54 229 169" stroke="#FF97C9" stroke-linecap="round" stroke-width="10" />
    <path d="M282 146C279.715 157.421 274.585 167.536 267 176" stroke="#FF97C9" stroke-linecap="round" stroke-width="10" />
    <path d="M315 160C313.214 168.532 309.058 176.38 303 182" stroke="#FF97C9" stroke-linecap="round" stroke-width="10" />
    <rect x="155" y="301" width="202" height="21" rx="10.5" fill="#FFF4FA" fill-opacity="0.56" />
    <circle cx="212" cy="317" r="11" fill="#FFF7FB" />
    <circle cx="256" cy="317" r="11" fill="#FFF7FB" />
    <circle cx="300" cy="317" r="11" fill="#FFF7FB" />
    <path d="M216 119C216 97.4609 233.461 80 255 80V80C276.539 80 294 97.4609 294 119V128H216V119Z" fill="#4F2A93" />
    <path d="M255 69L262.864 87.1364L281 95L262.864 102.864L255 121L247.136 102.864L229 95L247.136 87.1364L255 69Z" fill="#FFC85E" />
  </g>

  <rect x="20" y="20" width="472" height="472" rx="100" stroke="#FFFFFF" stroke-opacity="0.55" stroke-width="6" />
</svg>
